<svg viewBox="-166.5 -183.3 349.8 349.8" stroke-linejoin="round" xmlns="http://www.w3.org/2000/svg" width="512" height="512"><g transform="rotate(-45)"><polygon points="-29.7,9.8 -42.8,147.3 -9.2,152.7 21.7,18.2" fill="#BBBBBB" stroke="rgb(135, 135, 135)" stroke-width="7.5"/><polygon points="-36.4,95.3 -39.0,111.6 -1.5,117.7 1.1,101.4" fill="#FC7677" stroke="rgb(181, 85, 86)" stroke-width="7.5"/><polygon points="-8.7,27.2 -19.2,92.5 -14.3,93.3 -3.7,28.0" fill="#3D3D3D" stroke="rgb(44, 44, 44)" stroke-width="7.5"/><polygon points="-52.4,5.0 -86.0,122.1 -54.1,133.9 -3.6,23.0" fill="#BBBBBB" stroke="rgb(135, 135, 135)" stroke-width="7.5"/><polygon points="-71.9,78.1 -76.9,91.8 -41.3,104.9 -36.2,91.2" fill="#FC7677" stroke="rgb(181, 85, 86)" stroke-width="7.5"/><polygon points="-34.5,24.5 -54.7,79.3 -50.0,81.0 -29.9,26.3" fill="#3D3D3D" stroke="rgb(44, 44, 44)" stroke-width="7.5"/><polygon points="21.7,-18.2 -9.2,-152.7 -42.8,-147.3 -29.7,-9.8" fill="#BBBBBB" stroke="rgb(135, 135, 135)" stroke-width="7.5"/><polygon points="1.1,-101.4 -1.5,-117.7 -39.0,-111.6 -36.4,-95.3" fill="#FC7677" stroke="rgb(181, 85, 86)" stroke-width="7.5"/><polygon points="-3.7,-28.0 -14.3,-93.3 -19.2,-92.5 -8.7,-27.2" fill="#3D3D3D" stroke="rgb(44, 44, 44)" stroke-width="7.5"/><polygon points="-3.6,-23.0 -54.1,-133.9 -86.0,-122.1 -52.4,-5.0" fill="#BBBBBB" stroke="rgb(135, 135, 135)" stroke-width="7.5"/><polygon points="-36.2,-91.2 -41.3,-104.9 -76.9,-91.8 -71.9,-78.1" fill="#FC7677" stroke="rgb(181, 85, 86)" stroke-width="7.5"/><polygon points="-29.9,-26.3 -50.0,-81.0 -54.7,-79.3 -34.5,-24.5" fill="#3D3D3D" stroke="rgb(44, 44, 44)" stroke-width="7.5"/><polygon points="-26.0,155.0 78.0,156.5 78.0,143.5 -26.0,145.0" fill="#3D3D3D" stroke="rgb(44, 44, 44)" stroke-width="7.5"/><circle transform="translate(-26.0 150.0)" r="9" fill="#3D3D3D" stroke="rgb(44, 44, 44)" stroke-width="7.5"/><polygon points="-70.0,-123.0 34.0,-121.5 34.0,-134.5 -70.0,-133.0" fill="#3D3D3D" stroke="rgb(44, 44, 44)" stroke-width="7.5"/><circle transform="translate(-70.0 -128.0)" r="9" fill="#3D3D3D" stroke="rgb(44, 44, 44)" stroke-width="7.5"/><polygon points="-70.0,133.0 34.0,134.5 34.0,121.5 -70.0,123.0" fill="#3D3D3D" stroke="rgb(44, 44, 44)" stroke-width="7.5"/><circle transform="translate(-70.0 128.0)" r="9" fill="#3D3D3D" stroke="rgb(44, 44, 44)" stroke-width="7.5"/><polygon points="-26.0,-145.0 78.0,-143.5 78.0,-156.5 -26.0,-155.0" fill="#3D3D3D" stroke="rgb(44, 44, 44)" stroke-width="7.5"/><circle transform="translate(-26.0 -150.0)" r="9" fill="#3D3D3D" stroke="rgb(44, 44, 44)" stroke-width="7.5"/><polygon points="-22.0,17.0 -102.0,14.5 -102.0,39.5 -22.0,37.0" fill="#BBBBBB" stroke="rgb(135, 135, 135)" stroke-width="7.5"/><circle transform="translate(-104.0 27.0)" r="9" fill="#FC7677" stroke="rgb(181, 85, 86)" stroke-width="7.5"/><polygon points="-22.0,39.0 -102.0,36.5 -102.0,61.5 -22.0,59.0" fill="#BBBBBB" stroke="rgb(135, 135, 135)" stroke-width="7.5"/><circle transform="translate(-104.0 49.0)" r="9" fill="#FC7677" stroke="rgb(181, 85, 86)" stroke-width="7.5"/><polygon points="-22.0,-37.0 -102.0,-39.5 -102.0,-14.5 -22.0,-17.0" fill="#BBBBBB" stroke="rgb(135, 135, 135)" stroke-width="7.5"/><circle transform="translate(-104.0 -27.0)" r="9" fill="#FC7677" stroke="rgb(181, 85, 86)" stroke-width="7.5"/><polygon points="-22.0,-59.0 -102.0,-61.5 -102.0,-36.5 -22.0,-39.0" fill="#BBBBBB" stroke="rgb(135, 135, 135)" stroke-width="7.5"/><circle transform="translate(-104.0 -49.0)" r="9" fill="#FC7677" stroke="rgb(181, 85, 86)" stroke-width="7.5"/><polygon points="-16.3,29.7 -75.7,29.7 -75.7,-29.7 -16.3,-29.7" fill="#BBBBBB" stroke="rgb(135, 135, 135)" stroke-width="7.5"/><polygon points="-13.1,31.9 -22.9,31.9 -22.9,22.1 -13.1,22.1" fill="#3D3D3D" stroke="rgb(44, 44, 44)" stroke-width="7.5"/><polygon points="-13.1,53.9 -22.9,53.9 -22.9,44.1 -13.1,44.1" fill="#3D3D3D" stroke="rgb(44, 44, 44)" stroke-width="7.5"/><polygon points="-13.1,-22.1 -22.9,-22.1 -22.9,-31.9 -13.1,-31.9" fill="#3D3D3D" stroke="rgb(44, 44, 44)" stroke-width="7.5"/><polygon points="-13.1,-44.1 -22.9,-44.1 -22.9,-53.9 -13.1,-53.9" fill="#3D3D3D" stroke="rgb(44, 44, 44)" stroke-width="7.5"/><polygon points="-15.0,-12.0 -95.0,-12.0 -95.0,12.0 -15.0,12.0" fill="#BBBBBB" stroke="rgb(135, 135, 135)" stroke-width="7.5"/><polygon points="14.0,15.0 206.0,5.0 206.0,-5.0 14.0,-15.0" fill="#BBBBBB" stroke="rgb(135, 135, 135)" stroke-width="7.5"/><polygon points="115.0,-13.0 115.0,13.0 121.0,13.0 121.0,-13.0" fill="#FC7677" stroke="rgb(181, 85, 86)" stroke-width="7.5"/><polygon points="135.0,-12.0 135.0,12.0 141.0,12.0 141.0,-12.0" fill="#FC7677" stroke="rgb(181, 85, 86)" stroke-width="7.5"/><circle transform="translate(207.0 0.0)" r="6" fill="#3D3D3D" stroke="rgb(44, 44, 44)" stroke-width="7.5"/><polygon points="34.0,9.5 100.0,9.5 100.0,-9.5 34.0,-9.5" fill="#3D3D3D" stroke="rgb(44, 44, 44)" stroke-width="7.5"/><circle r="16" fill="#BBBBBB" stroke="rgb(135, 135, 135)" stroke-width="7.5"/><polygon points="6.0,10.0 64.0,5.0 64.0,-5.0 6.0,-10.0" fill="#3D3D3D" stroke="rgb(44, 44, 44)" stroke-width="7.5"/><polygon points="12.0,5.0 54.0,2.5 54.0,-2.5 12.0,-5.0" fill="#35C5DB" stroke="rgb(38, 142, 158)" stroke-width="7.5"/><circle transform="translate(-16.0 0.0)" r="15" fill="#FFFFFF" stroke="rgb(184, 184, 184)" stroke-width="7.5"/><circle transform="translate(-11.0 0.0)" r="7" fill="#00B2E1" stroke="rgb(0, 128, 162)" stroke-width="7.5"/></g></svg>